G04 #@! TF.FileFunction,Legend,Top*
%FSLAX46Y46*%
G04 Gerber Fmt 4.6, Leading zero omitted, Abs format (unit mm)*
G04 Created by KiCad (PCBNEW 4.0.2+dfsg1-stable) date Mon 21 Aug 2017 12:22:30 PM CEST*
%MOMM*%
G01*
G04 APERTURE LIST*
%ADD10C,0.100000*%
%ADD11C,0.300000*%
%ADD12C,0.150000*%
G04 APERTURE END LIST*
D10*
D11*
X121107143Y-113928571D02*
X120607143Y-113214286D01*
X120250000Y-113928571D02*
X120250000Y-112428571D01*
X120821428Y-112428571D01*
X120964286Y-112500000D01*
X121035714Y-112571429D01*
X121107143Y-112714286D01*
X121107143Y-112928571D01*
X121035714Y-113071429D01*
X120964286Y-113142857D01*
X120821428Y-113214286D01*
X120250000Y-113214286D01*
X121750000Y-113928571D02*
X121750000Y-112428571D01*
X118857143Y-111428571D02*
X118857143Y-109928571D01*
X119214286Y-109928571D01*
X119428571Y-110000000D01*
X119571429Y-110142857D01*
X119642857Y-110285714D01*
X119714286Y-110571429D01*
X119714286Y-110785714D01*
X119642857Y-111071429D01*
X119571429Y-111214286D01*
X119428571Y-111357143D01*
X119214286Y-111428571D01*
X118857143Y-111428571D01*
X121214286Y-111285714D02*
X121142857Y-111357143D01*
X120928571Y-111428571D01*
X120785714Y-111428571D01*
X120571429Y-111357143D01*
X120428571Y-111214286D01*
X120357143Y-111071429D01*
X120285714Y-110785714D01*
X120285714Y-110571429D01*
X120357143Y-110285714D01*
X120428571Y-110142857D01*
X120571429Y-110000000D01*
X120785714Y-109928571D01*
X120928571Y-109928571D01*
X121142857Y-110000000D01*
X121214286Y-110071429D01*
X121857143Y-111428571D02*
X121857143Y-109928571D01*
X122214286Y-109928571D01*
X122428571Y-110000000D01*
X122571429Y-110142857D01*
X122642857Y-110285714D01*
X122714286Y-110571429D01*
X122714286Y-110785714D01*
X122642857Y-111071429D01*
X122571429Y-111214286D01*
X122428571Y-111357143D01*
X122214286Y-111428571D01*
X121857143Y-111428571D01*
X118857143Y-108678571D02*
X118857143Y-107178571D01*
X119214286Y-107178571D01*
X119428571Y-107250000D01*
X119571429Y-107392857D01*
X119642857Y-107535714D01*
X119714286Y-107821429D01*
X119714286Y-108035714D01*
X119642857Y-108321429D01*
X119571429Y-108464286D01*
X119428571Y-108607143D01*
X119214286Y-108678571D01*
X118857143Y-108678571D01*
X121214286Y-108535714D02*
X121142857Y-108607143D01*
X120928571Y-108678571D01*
X120785714Y-108678571D01*
X120571429Y-108607143D01*
X120428571Y-108464286D01*
X120357143Y-108321429D01*
X120285714Y-108035714D01*
X120285714Y-107821429D01*
X120357143Y-107535714D01*
X120428571Y-107392857D01*
X120571429Y-107250000D01*
X120785714Y-107178571D01*
X120928571Y-107178571D01*
X121142857Y-107250000D01*
X121214286Y-107321429D01*
X122714286Y-108678571D02*
X122214286Y-107964286D01*
X121857143Y-108678571D02*
X121857143Y-107178571D01*
X122428571Y-107178571D01*
X122571429Y-107250000D01*
X122642857Y-107321429D01*
X122714286Y-107464286D01*
X122714286Y-107678571D01*
X122642857Y-107821429D01*
X122571429Y-107892857D01*
X122428571Y-107964286D01*
X121857143Y-107964286D01*
X119285715Y-106178571D02*
X119285715Y-104678571D01*
X119642858Y-104678571D01*
X119857143Y-104750000D01*
X120000001Y-104892857D01*
X120071429Y-105035714D01*
X120142858Y-105321429D01*
X120142858Y-105535714D01*
X120071429Y-105821429D01*
X120000001Y-105964286D01*
X119857143Y-106107143D01*
X119642858Y-106178571D01*
X119285715Y-106178571D01*
X120571429Y-104678571D02*
X121428572Y-104678571D01*
X121000001Y-106178571D02*
X121000001Y-104678571D01*
X122785715Y-106178571D02*
X122285715Y-105464286D01*
X121928572Y-106178571D02*
X121928572Y-104678571D01*
X122500000Y-104678571D01*
X122642858Y-104750000D01*
X122714286Y-104821429D01*
X122785715Y-104964286D01*
X122785715Y-105178571D01*
X122714286Y-105321429D01*
X122642858Y-105392857D01*
X122500000Y-105464286D01*
X121928572Y-105464286D01*
X120178572Y-103535714D02*
X120107143Y-103607143D01*
X119892857Y-103678571D01*
X119750000Y-103678571D01*
X119535715Y-103607143D01*
X119392857Y-103464286D01*
X119321429Y-103321429D01*
X119250000Y-103035714D01*
X119250000Y-102821429D01*
X119321429Y-102535714D01*
X119392857Y-102392857D01*
X119535715Y-102250000D01*
X119750000Y-102178571D01*
X119892857Y-102178571D01*
X120107143Y-102250000D01*
X120178572Y-102321429D01*
X120607143Y-102178571D02*
X121464286Y-102178571D01*
X121035715Y-103678571D02*
X121035715Y-102178571D01*
X121892857Y-103607143D02*
X122107143Y-103678571D01*
X122464286Y-103678571D01*
X122607143Y-103607143D01*
X122678572Y-103535714D01*
X122750000Y-103392857D01*
X122750000Y-103250000D01*
X122678572Y-103107143D01*
X122607143Y-103035714D01*
X122464286Y-102964286D01*
X122178572Y-102892857D01*
X122035714Y-102821429D01*
X121964286Y-102750000D01*
X121892857Y-102607143D01*
X121892857Y-102464286D01*
X121964286Y-102321429D01*
X122035714Y-102250000D01*
X122178572Y-102178571D01*
X122535714Y-102178571D01*
X122750000Y-102250000D01*
X120178572Y-101178571D02*
X119678572Y-100464286D01*
X119321429Y-101178571D02*
X119321429Y-99678571D01*
X119892857Y-99678571D01*
X120035715Y-99750000D01*
X120107143Y-99821429D01*
X120178572Y-99964286D01*
X120178572Y-100178571D01*
X120107143Y-100321429D01*
X120035715Y-100392857D01*
X119892857Y-100464286D01*
X119321429Y-100464286D01*
X120607143Y-99678571D02*
X121464286Y-99678571D01*
X121035715Y-101178571D02*
X121035715Y-99678571D01*
X121892857Y-101107143D02*
X122107143Y-101178571D01*
X122464286Y-101178571D01*
X122607143Y-101107143D01*
X122678572Y-101035714D01*
X122750000Y-100892857D01*
X122750000Y-100750000D01*
X122678572Y-100607143D01*
X122607143Y-100535714D01*
X122464286Y-100464286D01*
X122178572Y-100392857D01*
X122035714Y-100321429D01*
X121964286Y-100250000D01*
X121892857Y-100107143D01*
X121892857Y-99964286D01*
X121964286Y-99821429D01*
X122035714Y-99750000D01*
X122178572Y-99678571D01*
X122535714Y-99678571D01*
X122750000Y-99750000D01*
X120000001Y-98678571D02*
X119500001Y-97964286D01*
X119142858Y-98678571D02*
X119142858Y-97178571D01*
X119714286Y-97178571D01*
X119857144Y-97250000D01*
X119928572Y-97321429D01*
X120000001Y-97464286D01*
X120000001Y-97678571D01*
X119928572Y-97821429D01*
X119857144Y-97892857D01*
X119714286Y-97964286D01*
X119142858Y-97964286D01*
X120500001Y-97178571D02*
X121500001Y-98678571D01*
X121500001Y-97178571D02*
X120500001Y-98678571D01*
X122071429Y-98678571D02*
X122071429Y-97178571D01*
X122428572Y-97178571D01*
X122642857Y-97250000D01*
X122785715Y-97392857D01*
X122857143Y-97535714D01*
X122928572Y-97821429D01*
X122928572Y-98035714D01*
X122857143Y-98321429D01*
X122785715Y-98464286D01*
X122642857Y-98607143D01*
X122428572Y-98678571D01*
X122071429Y-98678571D01*
X119107143Y-94428571D02*
X119964286Y-94428571D01*
X119535715Y-95928571D02*
X119535715Y-94428571D01*
X120321429Y-94428571D02*
X121321429Y-95928571D01*
X121321429Y-94428571D02*
X120321429Y-95928571D01*
X121892857Y-95928571D02*
X121892857Y-94428571D01*
X122250000Y-94428571D01*
X122464285Y-94500000D01*
X122607143Y-94642857D01*
X122678571Y-94785714D01*
X122750000Y-95071429D01*
X122750000Y-95285714D01*
X122678571Y-95571429D01*
X122607143Y-95714286D01*
X122464285Y-95857143D01*
X122250000Y-95928571D01*
X121892857Y-95928571D01*
X149350001Y-105685714D02*
X149278572Y-105757143D01*
X149064286Y-105828571D01*
X148921429Y-105828571D01*
X148707144Y-105757143D01*
X148564286Y-105614286D01*
X148492858Y-105471429D01*
X148421429Y-105185714D01*
X148421429Y-104971429D01*
X148492858Y-104685714D01*
X148564286Y-104542857D01*
X148707144Y-104400000D01*
X148921429Y-104328571D01*
X149064286Y-104328571D01*
X149278572Y-104400000D01*
X149350001Y-104471429D01*
X150492858Y-105042857D02*
X150707144Y-105114286D01*
X150778572Y-105185714D01*
X150850001Y-105328571D01*
X150850001Y-105542857D01*
X150778572Y-105685714D01*
X150707144Y-105757143D01*
X150564286Y-105828571D01*
X149992858Y-105828571D01*
X149992858Y-104328571D01*
X150492858Y-104328571D01*
X150635715Y-104400000D01*
X150707144Y-104471429D01*
X150778572Y-104614286D01*
X150778572Y-104757143D01*
X150707144Y-104900000D01*
X150635715Y-104971429D01*
X150492858Y-105042857D01*
X149992858Y-105042857D01*
X151492858Y-104328571D02*
X151492858Y-105542857D01*
X151564286Y-105685714D01*
X151635715Y-105757143D01*
X151778572Y-105828571D01*
X152064286Y-105828571D01*
X152207144Y-105757143D01*
X152278572Y-105685714D01*
X152350001Y-105542857D01*
X152350001Y-104328571D01*
X152992858Y-105757143D02*
X153207144Y-105828571D01*
X153564287Y-105828571D01*
X153707144Y-105757143D01*
X153778573Y-105685714D01*
X153850001Y-105542857D01*
X153850001Y-105400000D01*
X153778573Y-105257143D01*
X153707144Y-105185714D01*
X153564287Y-105114286D01*
X153278573Y-105042857D01*
X153135715Y-104971429D01*
X153064287Y-104900000D01*
X152992858Y-104757143D01*
X152992858Y-104614286D01*
X153064287Y-104471429D01*
X153135715Y-104400000D01*
X153278573Y-104328571D01*
X153635715Y-104328571D01*
X153850001Y-104400000D01*
X155135715Y-104828571D02*
X155135715Y-105828571D01*
X154778572Y-104257143D02*
X154421429Y-105328571D01*
X155350001Y-105328571D01*
X149350001Y-103185714D02*
X149278572Y-103257143D01*
X149064286Y-103328571D01*
X148921429Y-103328571D01*
X148707144Y-103257143D01*
X148564286Y-103114286D01*
X148492858Y-102971429D01*
X148421429Y-102685714D01*
X148421429Y-102471429D01*
X148492858Y-102185714D01*
X148564286Y-102042857D01*
X148707144Y-101900000D01*
X148921429Y-101828571D01*
X149064286Y-101828571D01*
X149278572Y-101900000D01*
X149350001Y-101971429D01*
X150492858Y-102542857D02*
X150707144Y-102614286D01*
X150778572Y-102685714D01*
X150850001Y-102828571D01*
X150850001Y-103042857D01*
X150778572Y-103185714D01*
X150707144Y-103257143D01*
X150564286Y-103328571D01*
X149992858Y-103328571D01*
X149992858Y-101828571D01*
X150492858Y-101828571D01*
X150635715Y-101900000D01*
X150707144Y-101971429D01*
X150778572Y-102114286D01*
X150778572Y-102257143D01*
X150707144Y-102400000D01*
X150635715Y-102471429D01*
X150492858Y-102542857D01*
X149992858Y-102542857D01*
X151492858Y-101828571D02*
X151492858Y-103042857D01*
X151564286Y-103185714D01*
X151635715Y-103257143D01*
X151778572Y-103328571D01*
X152064286Y-103328571D01*
X152207144Y-103257143D01*
X152278572Y-103185714D01*
X152350001Y-103042857D01*
X152350001Y-101828571D01*
X152992858Y-103257143D02*
X153207144Y-103328571D01*
X153564287Y-103328571D01*
X153707144Y-103257143D01*
X153778573Y-103185714D01*
X153850001Y-103042857D01*
X153850001Y-102900000D01*
X153778573Y-102757143D01*
X153707144Y-102685714D01*
X153564287Y-102614286D01*
X153278573Y-102542857D01*
X153135715Y-102471429D01*
X153064287Y-102400000D01*
X152992858Y-102257143D01*
X152992858Y-102114286D01*
X153064287Y-101971429D01*
X153135715Y-101900000D01*
X153278573Y-101828571D01*
X153635715Y-101828571D01*
X153850001Y-101900000D01*
X154350001Y-101828571D02*
X155278572Y-101828571D01*
X154778572Y-102400000D01*
X154992858Y-102400000D01*
X155135715Y-102471429D01*
X155207144Y-102542857D01*
X155278572Y-102685714D01*
X155278572Y-103042857D01*
X155207144Y-103185714D01*
X155135715Y-103257143D01*
X154992858Y-103328571D01*
X154564286Y-103328571D01*
X154421429Y-103257143D01*
X154350001Y-103185714D01*
X149400001Y-100685714D02*
X149328572Y-100757143D01*
X149114286Y-100828571D01*
X148971429Y-100828571D01*
X148757144Y-100757143D01*
X148614286Y-100614286D01*
X148542858Y-100471429D01*
X148471429Y-100185714D01*
X148471429Y-99971429D01*
X148542858Y-99685714D01*
X148614286Y-99542857D01*
X148757144Y-99400000D01*
X148971429Y-99328571D01*
X149114286Y-99328571D01*
X149328572Y-99400000D01*
X149400001Y-99471429D01*
X150542858Y-100042857D02*
X150757144Y-100114286D01*
X150828572Y-100185714D01*
X150900001Y-100328571D01*
X150900001Y-100542857D01*
X150828572Y-100685714D01*
X150757144Y-100757143D01*
X150614286Y-100828571D01*
X150042858Y-100828571D01*
X150042858Y-99328571D01*
X150542858Y-99328571D01*
X150685715Y-99400000D01*
X150757144Y-99471429D01*
X150828572Y-99614286D01*
X150828572Y-99757143D01*
X150757144Y-99900000D01*
X150685715Y-99971429D01*
X150542858Y-100042857D01*
X150042858Y-100042857D01*
X151542858Y-99328571D02*
X151542858Y-100542857D01*
X151614286Y-100685714D01*
X151685715Y-100757143D01*
X151828572Y-100828571D01*
X152114286Y-100828571D01*
X152257144Y-100757143D01*
X152328572Y-100685714D01*
X152400001Y-100542857D01*
X152400001Y-99328571D01*
X153042858Y-100757143D02*
X153257144Y-100828571D01*
X153614287Y-100828571D01*
X153757144Y-100757143D01*
X153828573Y-100685714D01*
X153900001Y-100542857D01*
X153900001Y-100400000D01*
X153828573Y-100257143D01*
X153757144Y-100185714D01*
X153614287Y-100114286D01*
X153328573Y-100042857D01*
X153185715Y-99971429D01*
X153114287Y-99900000D01*
X153042858Y-99757143D01*
X153042858Y-99614286D01*
X153114287Y-99471429D01*
X153185715Y-99400000D01*
X153328573Y-99328571D01*
X153685715Y-99328571D01*
X153900001Y-99400000D01*
X154471429Y-99471429D02*
X154542858Y-99400000D01*
X154685715Y-99328571D01*
X155042858Y-99328571D01*
X155185715Y-99400000D01*
X155257144Y-99471429D01*
X155328572Y-99614286D01*
X155328572Y-99757143D01*
X155257144Y-99971429D01*
X154400001Y-100828571D01*
X155328572Y-100828571D01*
X149500001Y-98285714D02*
X149428572Y-98357143D01*
X149214286Y-98428571D01*
X149071429Y-98428571D01*
X148857144Y-98357143D01*
X148714286Y-98214286D01*
X148642858Y-98071429D01*
X148571429Y-97785714D01*
X148571429Y-97571429D01*
X148642858Y-97285714D01*
X148714286Y-97142857D01*
X148857144Y-97000000D01*
X149071429Y-96928571D01*
X149214286Y-96928571D01*
X149428572Y-97000000D01*
X149500001Y-97071429D01*
X150642858Y-97642857D02*
X150857144Y-97714286D01*
X150928572Y-97785714D01*
X151000001Y-97928571D01*
X151000001Y-98142857D01*
X150928572Y-98285714D01*
X150857144Y-98357143D01*
X150714286Y-98428571D01*
X150142858Y-98428571D01*
X150142858Y-96928571D01*
X150642858Y-96928571D01*
X150785715Y-97000000D01*
X150857144Y-97071429D01*
X150928572Y-97214286D01*
X150928572Y-97357143D01*
X150857144Y-97500000D01*
X150785715Y-97571429D01*
X150642858Y-97642857D01*
X150142858Y-97642857D01*
X151642858Y-96928571D02*
X151642858Y-98142857D01*
X151714286Y-98285714D01*
X151785715Y-98357143D01*
X151928572Y-98428571D01*
X152214286Y-98428571D01*
X152357144Y-98357143D01*
X152428572Y-98285714D01*
X152500001Y-98142857D01*
X152500001Y-96928571D01*
X153142858Y-98357143D02*
X153357144Y-98428571D01*
X153714287Y-98428571D01*
X153857144Y-98357143D01*
X153928573Y-98285714D01*
X154000001Y-98142857D01*
X154000001Y-98000000D01*
X153928573Y-97857143D01*
X153857144Y-97785714D01*
X153714287Y-97714286D01*
X153428573Y-97642857D01*
X153285715Y-97571429D01*
X153214287Y-97500000D01*
X153142858Y-97357143D01*
X153142858Y-97214286D01*
X153214287Y-97071429D01*
X153285715Y-97000000D01*
X153428573Y-96928571D01*
X153785715Y-96928571D01*
X154000001Y-97000000D01*
X155428572Y-98428571D02*
X154571429Y-98428571D01*
X155000001Y-98428571D02*
X155000001Y-96928571D01*
X154857144Y-97142857D01*
X154714286Y-97285714D01*
X154571429Y-97357143D01*
X149500001Y-95535714D02*
X149428572Y-95607143D01*
X149214286Y-95678571D01*
X149071429Y-95678571D01*
X148857144Y-95607143D01*
X148714286Y-95464286D01*
X148642858Y-95321429D01*
X148571429Y-95035714D01*
X148571429Y-94821429D01*
X148642858Y-94535714D01*
X148714286Y-94392857D01*
X148857144Y-94250000D01*
X149071429Y-94178571D01*
X149214286Y-94178571D01*
X149428572Y-94250000D01*
X149500001Y-94321429D01*
X150642858Y-94892857D02*
X150857144Y-94964286D01*
X150928572Y-95035714D01*
X151000001Y-95178571D01*
X151000001Y-95392857D01*
X150928572Y-95535714D01*
X150857144Y-95607143D01*
X150714286Y-95678571D01*
X150142858Y-95678571D01*
X150142858Y-94178571D01*
X150642858Y-94178571D01*
X150785715Y-94250000D01*
X150857144Y-94321429D01*
X150928572Y-94464286D01*
X150928572Y-94607143D01*
X150857144Y-94750000D01*
X150785715Y-94821429D01*
X150642858Y-94892857D01*
X150142858Y-94892857D01*
X151642858Y-94178571D02*
X151642858Y-95392857D01*
X151714286Y-95535714D01*
X151785715Y-95607143D01*
X151928572Y-95678571D01*
X152214286Y-95678571D01*
X152357144Y-95607143D01*
X152428572Y-95535714D01*
X152500001Y-95392857D01*
X152500001Y-94178571D01*
X153142858Y-95607143D02*
X153357144Y-95678571D01*
X153714287Y-95678571D01*
X153857144Y-95607143D01*
X153928573Y-95535714D01*
X154000001Y-95392857D01*
X154000001Y-95250000D01*
X153928573Y-95107143D01*
X153857144Y-95035714D01*
X153714287Y-94964286D01*
X153428573Y-94892857D01*
X153285715Y-94821429D01*
X153214287Y-94750000D01*
X153142858Y-94607143D01*
X153142858Y-94464286D01*
X153214287Y-94321429D01*
X153285715Y-94250000D01*
X153428573Y-94178571D01*
X153785715Y-94178571D01*
X154000001Y-94250000D01*
X154928572Y-94178571D02*
X155071429Y-94178571D01*
X155214286Y-94250000D01*
X155285715Y-94321429D01*
X155357144Y-94464286D01*
X155428572Y-94750000D01*
X155428572Y-95107143D01*
X155357144Y-95392857D01*
X155285715Y-95535714D01*
X155214286Y-95607143D01*
X155071429Y-95678571D01*
X154928572Y-95678571D01*
X154785715Y-95607143D01*
X154714286Y-95535714D01*
X154642858Y-95392857D01*
X154571429Y-95107143D01*
X154571429Y-94750000D01*
X154642858Y-94464286D01*
X154714286Y-94321429D01*
X154785715Y-94250000D01*
X154928572Y-94178571D01*
X148535715Y-106928571D02*
X149464286Y-106928571D01*
X148964286Y-107500000D01*
X149178572Y-107500000D01*
X149321429Y-107571429D01*
X149392858Y-107642857D01*
X149464286Y-107785714D01*
X149464286Y-108142857D01*
X149392858Y-108285714D01*
X149321429Y-108357143D01*
X149178572Y-108428571D01*
X148750000Y-108428571D01*
X148607143Y-108357143D01*
X148535715Y-108285714D01*
X150107143Y-108285714D02*
X150178571Y-108357143D01*
X150107143Y-108428571D01*
X150035714Y-108357143D01*
X150107143Y-108285714D01*
X150107143Y-108428571D01*
X150678572Y-106928571D02*
X151607143Y-106928571D01*
X151107143Y-107500000D01*
X151321429Y-107500000D01*
X151464286Y-107571429D01*
X151535715Y-107642857D01*
X151607143Y-107785714D01*
X151607143Y-108142857D01*
X151535715Y-108285714D01*
X151464286Y-108357143D01*
X151321429Y-108428571D01*
X150892857Y-108428571D01*
X150750000Y-108357143D01*
X150678572Y-108285714D01*
X152035714Y-106928571D02*
X152535714Y-108428571D01*
X153035714Y-106928571D01*
X149714287Y-109428571D02*
X149000001Y-109428571D01*
X148928572Y-110142857D01*
X149000001Y-110071429D01*
X149142858Y-110000000D01*
X149500001Y-110000000D01*
X149642858Y-110071429D01*
X149714287Y-110142857D01*
X149785715Y-110285714D01*
X149785715Y-110642857D01*
X149714287Y-110785714D01*
X149642858Y-110857143D01*
X149500001Y-110928571D01*
X149142858Y-110928571D01*
X149000001Y-110857143D01*
X148928572Y-110785714D01*
X150214286Y-109428571D02*
X150714286Y-110928571D01*
X151214286Y-109428571D01*
X149357143Y-112250000D02*
X149214286Y-112178571D01*
X149000000Y-112178571D01*
X148785715Y-112250000D01*
X148642857Y-112392857D01*
X148571429Y-112535714D01*
X148500000Y-112821429D01*
X148500000Y-113035714D01*
X148571429Y-113321429D01*
X148642857Y-113464286D01*
X148785715Y-113607143D01*
X149000000Y-113678571D01*
X149142857Y-113678571D01*
X149357143Y-113607143D01*
X149428572Y-113535714D01*
X149428572Y-113035714D01*
X149142857Y-113035714D01*
X150071429Y-113678571D02*
X150071429Y-112178571D01*
X150928572Y-113678571D01*
X150928572Y-112178571D01*
X151642858Y-113678571D02*
X151642858Y-112178571D01*
X152000001Y-112178571D01*
X152214286Y-112250000D01*
X152357144Y-112392857D01*
X152428572Y-112535714D01*
X152500001Y-112821429D01*
X152500001Y-113035714D01*
X152428572Y-113321429D01*
X152357144Y-113464286D01*
X152214286Y-113607143D01*
X152000001Y-113678571D01*
X151642858Y-113678571D01*
X137435715Y-113578571D02*
X138364286Y-113578571D01*
X137864286Y-114150000D01*
X138078572Y-114150000D01*
X138221429Y-114221429D01*
X138292858Y-114292857D01*
X138364286Y-114435714D01*
X138364286Y-114792857D01*
X138292858Y-114935714D01*
X138221429Y-115007143D01*
X138078572Y-115078571D01*
X137650000Y-115078571D01*
X137507143Y-115007143D01*
X137435715Y-114935714D01*
X139007143Y-114935714D02*
X139078571Y-115007143D01*
X139007143Y-115078571D01*
X138935714Y-115007143D01*
X139007143Y-114935714D01*
X139007143Y-115078571D01*
X139578572Y-113578571D02*
X140507143Y-113578571D01*
X140007143Y-114150000D01*
X140221429Y-114150000D01*
X140364286Y-114221429D01*
X140435715Y-114292857D01*
X140507143Y-114435714D01*
X140507143Y-114792857D01*
X140435715Y-114935714D01*
X140364286Y-115007143D01*
X140221429Y-115078571D01*
X139792857Y-115078571D01*
X139650000Y-115007143D01*
X139578572Y-114935714D01*
X140935714Y-113578571D02*
X141435714Y-115078571D01*
X141935714Y-113578571D01*
X133264287Y-113528571D02*
X132550001Y-113528571D01*
X132478572Y-114242857D01*
X132550001Y-114171429D01*
X132692858Y-114100000D01*
X133050001Y-114100000D01*
X133192858Y-114171429D01*
X133264287Y-114242857D01*
X133335715Y-114385714D01*
X133335715Y-114742857D01*
X133264287Y-114885714D01*
X133192858Y-114957143D01*
X133050001Y-115028571D01*
X132692858Y-115028571D01*
X132550001Y-114957143D01*
X132478572Y-114885714D01*
X133764286Y-113528571D02*
X134264286Y-115028571D01*
X134764286Y-113528571D01*
D12*
X137000000Y-119200000D02*
X137700000Y-119200000D01*
X137700000Y-120400000D02*
X137000000Y-120400000D01*
X129201000Y-118000000D02*
X128439000Y-118000000D01*
X128820000Y-117619000D02*
X128820000Y-118381000D01*
X129074000Y-120286000D02*
X125264000Y-120286000D01*
X129836000Y-116476000D02*
X129836000Y-119524000D01*
X129074000Y-120286000D02*
X129836000Y-119524000D01*
X129074000Y-115714000D02*
X125264000Y-115714000D01*
X129074000Y-115714000D02*
X129836000Y-116476000D01*
X125518000Y-118127000D02*
X125518000Y-117873000D01*
X125645000Y-117365000D02*
X125645000Y-118635000D01*
X125772000Y-118889000D02*
X125772000Y-117111000D01*
X125899000Y-119143000D02*
X125899000Y-116857000D01*
X126026000Y-116730000D02*
X126026000Y-119270000D01*
X126153000Y-119397000D02*
X126153000Y-116603000D01*
X126280000Y-116476000D02*
X126280000Y-119524000D01*
X126407000Y-116349000D02*
X126407000Y-119651000D01*
X125264000Y-115714000D02*
X125264000Y-120286000D01*
X129582000Y-118000000D02*
G75*
G03X129582000Y-118000000I-2032000J0D01*
G01*
X142849000Y-117950000D02*
X143611000Y-117950000D01*
X143230000Y-118331000D02*
X143230000Y-117569000D01*
X142976000Y-115664000D02*
X146786000Y-115664000D01*
X142214000Y-119474000D02*
X142214000Y-116426000D01*
X142976000Y-115664000D02*
X142214000Y-116426000D01*
X142976000Y-120236000D02*
X146786000Y-120236000D01*
X142976000Y-120236000D02*
X142214000Y-119474000D01*
X146532000Y-117823000D02*
X146532000Y-118077000D01*
X146405000Y-118585000D02*
X146405000Y-117315000D01*
X146278000Y-117061000D02*
X146278000Y-118839000D01*
X146151000Y-116807000D02*
X146151000Y-119093000D01*
X146024000Y-119220000D02*
X146024000Y-116680000D01*
X145897000Y-116553000D02*
X145897000Y-119347000D01*
X145770000Y-119474000D02*
X145770000Y-116426000D01*
X145643000Y-119601000D02*
X145643000Y-116299000D01*
X146786000Y-120236000D02*
X146786000Y-115664000D01*
X146532000Y-117950000D02*
G75*
G03X146532000Y-117950000I-2032000J0D01*
G01*
X139150000Y-98600000D02*
X139150000Y-97900000D01*
X140350000Y-97900000D02*
X140350000Y-98600000D01*
X130650000Y-98550000D02*
X130650000Y-97850000D01*
X131850000Y-97850000D02*
X131850000Y-98550000D01*
X142800000Y-89700000D02*
X142800000Y-91600000D01*
X143900000Y-89700000D02*
X143900000Y-91600000D01*
X143350000Y-90600000D02*
X143350000Y-91050000D01*
X143600000Y-90550000D02*
X143100000Y-90550000D01*
X143350000Y-90550000D02*
X143600000Y-90800000D01*
X143600000Y-90800000D02*
X143100000Y-90800000D01*
X143100000Y-90800000D02*
X143350000Y-90550000D01*
X138125000Y-97700000D02*
X138125000Y-98700000D01*
X136775000Y-98700000D02*
X136775000Y-97700000D01*
X139550640Y-85750820D02*
X131849360Y-85750820D01*
X139550640Y-84750060D02*
X131849360Y-84750060D01*
X131849360Y-84750060D02*
X131849360Y-93949940D01*
X131849360Y-93949940D02*
X139550640Y-93949940D01*
X139550640Y-93949940D02*
X139550640Y-84750060D01*
X135020000Y-118120000D02*
X140100000Y-118120000D01*
X140100000Y-118120000D02*
X140100000Y-115580000D01*
X140100000Y-115580000D02*
X135020000Y-115580000D01*
X132200000Y-115300000D02*
X133750000Y-115300000D01*
X135020000Y-115580000D02*
X135020000Y-118120000D01*
X133750000Y-118400000D02*
X132200000Y-118400000D01*
X132200000Y-118400000D02*
X132200000Y-115300000D01*
X126320000Y-96670000D02*
X126320000Y-114450000D01*
X126320000Y-114450000D02*
X123780000Y-114450000D01*
X123780000Y-114450000D02*
X123780000Y-96670000D01*
X126600000Y-93850000D02*
X126600000Y-95400000D01*
X126320000Y-96670000D02*
X123780000Y-96670000D01*
X123500000Y-95400000D02*
X123500000Y-93850000D01*
X123500000Y-93850000D02*
X126600000Y-93850000D01*
X147720000Y-96270000D02*
X147720000Y-114050000D01*
X147720000Y-114050000D02*
X145180000Y-114050000D01*
X145180000Y-114050000D02*
X145180000Y-96270000D01*
X148000000Y-93450000D02*
X148000000Y-95000000D01*
X147720000Y-96270000D02*
X145180000Y-96270000D01*
X144900000Y-95000000D02*
X144900000Y-93450000D01*
X144900000Y-93450000D02*
X148000000Y-93450000D01*
X134675000Y-97700000D02*
X134675000Y-98700000D01*
X133325000Y-98700000D02*
X133325000Y-97700000D01*
X136425000Y-97700000D02*
X136425000Y-98700000D01*
X135075000Y-98700000D02*
X135075000Y-97700000D01*
X143775000Y-94400000D02*
X143775000Y-95400000D01*
X142425000Y-95400000D02*
X142425000Y-94400000D01*
X132725000Y-102375000D02*
X132725000Y-103025000D01*
X138475000Y-102375000D02*
X138475000Y-103025000D01*
X138475000Y-113025000D02*
X138475000Y-112375000D01*
X132725000Y-113025000D02*
X132725000Y-112375000D01*
X132725000Y-102375000D02*
X138475000Y-102375000D01*
X132725000Y-113025000D02*
X138475000Y-113025000D01*
X132725000Y-103025000D02*
X131125000Y-103025000D01*
X137183334Y-118257143D02*
X137135715Y-118304762D01*
X136992858Y-118352381D01*
X136897620Y-118352381D01*
X136754762Y-118304762D01*
X136659524Y-118209524D01*
X136611905Y-118114286D01*
X136564286Y-117923810D01*
X136564286Y-117780952D01*
X136611905Y-117590476D01*
X136659524Y-117495238D01*
X136754762Y-117400000D01*
X136897620Y-117352381D01*
X136992858Y-117352381D01*
X137135715Y-117400000D01*
X137183334Y-117447619D01*
X138135715Y-118352381D02*
X137564286Y-118352381D01*
X137850000Y-118352381D02*
X137850000Y-117352381D01*
X137754762Y-117495238D01*
X137659524Y-117590476D01*
X137564286Y-117638095D01*
X127383334Y-115182143D02*
X127335715Y-115229762D01*
X127192858Y-115277381D01*
X127097620Y-115277381D01*
X126954762Y-115229762D01*
X126859524Y-115134524D01*
X126811905Y-115039286D01*
X126764286Y-114848810D01*
X126764286Y-114705952D01*
X126811905Y-114515476D01*
X126859524Y-114420238D01*
X126954762Y-114325000D01*
X127097620Y-114277381D01*
X127192858Y-114277381D01*
X127335715Y-114325000D01*
X127383334Y-114372619D01*
X127764286Y-114372619D02*
X127811905Y-114325000D01*
X127907143Y-114277381D01*
X128145239Y-114277381D01*
X128240477Y-114325000D01*
X128288096Y-114372619D01*
X128335715Y-114467857D01*
X128335715Y-114563095D01*
X128288096Y-114705952D01*
X127716667Y-115277381D01*
X128335715Y-115277381D01*
X144333334Y-121482143D02*
X144285715Y-121529762D01*
X144142858Y-121577381D01*
X144047620Y-121577381D01*
X143904762Y-121529762D01*
X143809524Y-121434524D01*
X143761905Y-121339286D01*
X143714286Y-121148810D01*
X143714286Y-121005952D01*
X143761905Y-120815476D01*
X143809524Y-120720238D01*
X143904762Y-120625000D01*
X144047620Y-120577381D01*
X144142858Y-120577381D01*
X144285715Y-120625000D01*
X144333334Y-120672619D01*
X144666667Y-120577381D02*
X145285715Y-120577381D01*
X144952381Y-120958333D01*
X145095239Y-120958333D01*
X145190477Y-121005952D01*
X145238096Y-121053571D01*
X145285715Y-121148810D01*
X145285715Y-121386905D01*
X145238096Y-121482143D01*
X145190477Y-121529762D01*
X145095239Y-121577381D01*
X144809524Y-121577381D01*
X144714286Y-121529762D01*
X144666667Y-121482143D01*
X138207143Y-98416666D02*
X138254762Y-98464285D01*
X138302381Y-98607142D01*
X138302381Y-98702380D01*
X138254762Y-98845238D01*
X138159524Y-98940476D01*
X138064286Y-98988095D01*
X137873810Y-99035714D01*
X137730952Y-99035714D01*
X137540476Y-98988095D01*
X137445238Y-98940476D01*
X137350000Y-98845238D01*
X137302381Y-98702380D01*
X137302381Y-98607142D01*
X137350000Y-98464285D01*
X137397619Y-98416666D01*
X137635714Y-97559523D02*
X138302381Y-97559523D01*
X137254762Y-97797619D02*
X137969048Y-98035714D01*
X137969048Y-97416666D01*
X129707143Y-98366666D02*
X129754762Y-98414285D01*
X129802381Y-98557142D01*
X129802381Y-98652380D01*
X129754762Y-98795238D01*
X129659524Y-98890476D01*
X129564286Y-98938095D01*
X129373810Y-98985714D01*
X129230952Y-98985714D01*
X129040476Y-98938095D01*
X128945238Y-98890476D01*
X128850000Y-98795238D01*
X128802381Y-98652380D01*
X128802381Y-98557142D01*
X128850000Y-98414285D01*
X128897619Y-98366666D01*
X128802381Y-97461904D02*
X128802381Y-97938095D01*
X129278571Y-97985714D01*
X129230952Y-97938095D01*
X129183333Y-97842857D01*
X129183333Y-97604761D01*
X129230952Y-97509523D01*
X129278571Y-97461904D01*
X129373810Y-97414285D01*
X129611905Y-97414285D01*
X129707143Y-97461904D01*
X129754762Y-97509523D01*
X129802381Y-97604761D01*
X129802381Y-97842857D01*
X129754762Y-97938095D01*
X129707143Y-97985714D01*
X145302381Y-91538095D02*
X144302381Y-91538095D01*
X144302381Y-91300000D01*
X144350000Y-91157142D01*
X144445238Y-91061904D01*
X144540476Y-91014285D01*
X144730952Y-90966666D01*
X144873810Y-90966666D01*
X145064286Y-91014285D01*
X145159524Y-91061904D01*
X145254762Y-91157142D01*
X145302381Y-91300000D01*
X145302381Y-91538095D01*
X145302381Y-90014285D02*
X145302381Y-90585714D01*
X145302381Y-90300000D02*
X144302381Y-90300000D01*
X144445238Y-90395238D01*
X144540476Y-90490476D01*
X144588095Y-90585714D01*
X136002381Y-98366666D02*
X136002381Y-98842857D01*
X135002381Y-98842857D01*
X136002381Y-97509523D02*
X136002381Y-98080952D01*
X136002381Y-97795238D02*
X135002381Y-97795238D01*
X135145238Y-97890476D01*
X135240476Y-97985714D01*
X135288095Y-98080952D01*
X129251201Y-90088095D02*
X128251201Y-90088095D01*
X128251201Y-89707142D01*
X128298820Y-89611904D01*
X128346439Y-89564285D01*
X128441677Y-89516666D01*
X128584534Y-89516666D01*
X128679772Y-89564285D01*
X128727391Y-89611904D01*
X128775010Y-89707142D01*
X128775010Y-90088095D01*
X129251201Y-88564285D02*
X129251201Y-89135714D01*
X129251201Y-88850000D02*
X128251201Y-88850000D01*
X128394058Y-88945238D01*
X128489296Y-89040476D01*
X128536915Y-89135714D01*
X129102381Y-117588095D02*
X128102381Y-117588095D01*
X128102381Y-117207142D01*
X128150000Y-117111904D01*
X128197619Y-117064285D01*
X128292857Y-117016666D01*
X128435714Y-117016666D01*
X128530952Y-117064285D01*
X128578571Y-117111904D01*
X128626190Y-117207142D01*
X128626190Y-117588095D01*
X128197619Y-116635714D02*
X128150000Y-116588095D01*
X128102381Y-116492857D01*
X128102381Y-116254761D01*
X128150000Y-116159523D01*
X128197619Y-116111904D01*
X128292857Y-116064285D01*
X128388095Y-116064285D01*
X128530952Y-116111904D01*
X129102381Y-116683333D01*
X129102381Y-116064285D01*
X124311905Y-90752381D02*
X124311905Y-89752381D01*
X124692858Y-89752381D01*
X124788096Y-89800000D01*
X124835715Y-89847619D01*
X124883334Y-89942857D01*
X124883334Y-90085714D01*
X124835715Y-90180952D01*
X124788096Y-90228571D01*
X124692858Y-90276190D01*
X124311905Y-90276190D01*
X125216667Y-89752381D02*
X125835715Y-89752381D01*
X125502381Y-90133333D01*
X125645239Y-90133333D01*
X125740477Y-90180952D01*
X125788096Y-90228571D01*
X125835715Y-90323810D01*
X125835715Y-90561905D01*
X125788096Y-90657143D01*
X125740477Y-90704762D01*
X125645239Y-90752381D01*
X125359524Y-90752381D01*
X125264286Y-90704762D01*
X125216667Y-90657143D01*
X145711905Y-90352381D02*
X145711905Y-89352381D01*
X146092858Y-89352381D01*
X146188096Y-89400000D01*
X146235715Y-89447619D01*
X146283334Y-89542857D01*
X146283334Y-89685714D01*
X146235715Y-89780952D01*
X146188096Y-89828571D01*
X146092858Y-89876190D01*
X145711905Y-89876190D01*
X147140477Y-89685714D02*
X147140477Y-90352381D01*
X146902381Y-89304762D02*
X146664286Y-90019048D01*
X147283334Y-90019048D01*
X132552381Y-98366666D02*
X132076190Y-98700000D01*
X132552381Y-98938095D02*
X131552381Y-98938095D01*
X131552381Y-98557142D01*
X131600000Y-98461904D01*
X131647619Y-98414285D01*
X131742857Y-98366666D01*
X131885714Y-98366666D01*
X131980952Y-98414285D01*
X132028571Y-98461904D01*
X132076190Y-98557142D01*
X132076190Y-98938095D01*
X132552381Y-97414285D02*
X132552381Y-97985714D01*
X132552381Y-97700000D02*
X131552381Y-97700000D01*
X131695238Y-97795238D01*
X131790476Y-97890476D01*
X131838095Y-97985714D01*
X134302381Y-98366666D02*
X133826190Y-98700000D01*
X134302381Y-98938095D02*
X133302381Y-98938095D01*
X133302381Y-98557142D01*
X133350000Y-98461904D01*
X133397619Y-98414285D01*
X133492857Y-98366666D01*
X133635714Y-98366666D01*
X133730952Y-98414285D01*
X133778571Y-98461904D01*
X133826190Y-98557142D01*
X133826190Y-98938095D01*
X133397619Y-97985714D02*
X133350000Y-97938095D01*
X133302381Y-97842857D01*
X133302381Y-97604761D01*
X133350000Y-97509523D01*
X133397619Y-97461904D01*
X133492857Y-97414285D01*
X133588095Y-97414285D01*
X133730952Y-97461904D01*
X134302381Y-98033333D01*
X134302381Y-97414285D01*
X141652381Y-95066666D02*
X141176190Y-95400000D01*
X141652381Y-95638095D02*
X140652381Y-95638095D01*
X140652381Y-95257142D01*
X140700000Y-95161904D01*
X140747619Y-95114285D01*
X140842857Y-95066666D01*
X140985714Y-95066666D01*
X141080952Y-95114285D01*
X141128571Y-95161904D01*
X141176190Y-95257142D01*
X141176190Y-95638095D01*
X140652381Y-94733333D02*
X140652381Y-94114285D01*
X141033333Y-94447619D01*
X141033333Y-94304761D01*
X141080952Y-94209523D01*
X141128571Y-94161904D01*
X141223810Y-94114285D01*
X141461905Y-94114285D01*
X141557143Y-94161904D01*
X141604762Y-94209523D01*
X141652381Y-94304761D01*
X141652381Y-94590476D01*
X141604762Y-94685714D01*
X141557143Y-94733333D01*
X134838095Y-100902381D02*
X134838095Y-101711905D01*
X134885714Y-101807143D01*
X134933333Y-101854762D01*
X135028571Y-101902381D01*
X135219048Y-101902381D01*
X135314286Y-101854762D01*
X135361905Y-101807143D01*
X135409524Y-101711905D01*
X135409524Y-100902381D01*
X136409524Y-101902381D02*
X135838095Y-101902381D01*
X136123809Y-101902381D02*
X136123809Y-100902381D01*
X136028571Y-101045238D01*
X135933333Y-101140476D01*
X135838095Y-101188095D01*
M02*
