G04 #@! TF.FileFunction,Copper,L2,Bot,Signal*
%FSLAX46Y46*%
G04 Gerber Fmt 4.6, Leading zero omitted, Abs format (unit mm)*
G04 Created by KiCad (PCBNEW 4.0.2+dfsg1-stable) date Mon 21 Aug 2017 12:22:30 PM CEST*
%MOMM*%
G01*
G04 APERTURE LIST*
%ADD10C,0.100000*%
%ADD11R,1.727200X2.032000*%
%ADD12O,1.727200X2.032000*%
%ADD13R,2.032000X1.727200*%
%ADD14O,2.032000X1.727200*%
%ADD15C,0.600000*%
%ADD16C,0.250000*%
%ADD17C,0.254000*%
G04 APERTURE END LIST*
D10*
D11*
X133750000Y-116850000D03*
D12*
X136290000Y-116850000D03*
X138830000Y-116850000D03*
D13*
X125050000Y-95400000D03*
D14*
X125050000Y-97940000D03*
X125050000Y-100480000D03*
X125050000Y-103020000D03*
X125050000Y-105560000D03*
X125050000Y-108100000D03*
X125050000Y-110640000D03*
X125050000Y-113180000D03*
D13*
X146450000Y-95000000D03*
D14*
X146450000Y-97540000D03*
X146450000Y-100080000D03*
X146450000Y-102620000D03*
X146450000Y-105160000D03*
X146450000Y-107700000D03*
X146450000Y-110240000D03*
X146450000Y-112780000D03*
D15*
X129050000Y-114950000D03*
X129500000Y-104700000D03*
X137400000Y-115050000D03*
X141700000Y-109650000D03*
X141200000Y-102000000D03*
X132700000Y-95300000D03*
X130300000Y-107450000D03*
X136900000Y-108950000D03*
X139400000Y-114200000D03*
X142000000Y-114150000D03*
X142550000Y-108700000D03*
X143850000Y-109750000D03*
X135450000Y-112200000D03*
X132150000Y-101400000D03*
X128000000Y-102500000D03*
X129550000Y-103800000D03*
X130450000Y-103500000D03*
X127300000Y-106200000D03*
X127950000Y-108200000D03*
X129500000Y-108200000D03*
X129750000Y-109300000D03*
X128450000Y-110050000D03*
X129550000Y-106850000D03*
X127150000Y-111750000D03*
X144650000Y-101100000D03*
X134250000Y-107150000D03*
X134800000Y-110500000D03*
X144650000Y-102950000D03*
X129600000Y-111550000D03*
X142500000Y-107550000D03*
D16*
X128950000Y-114950000D02*
X129050000Y-114950000D01*
X126500000Y-112500000D02*
X128950000Y-114950000D01*
X126500000Y-110800000D02*
X126500000Y-112500000D01*
X126600000Y-110700000D02*
X126500000Y-110800000D01*
X126600000Y-109900000D02*
X126600000Y-110700000D01*
X126600000Y-106000000D02*
X126600000Y-109900000D01*
X127900000Y-104700000D02*
X126600000Y-106000000D01*
X128900000Y-104700000D02*
X127900000Y-104700000D01*
X129500000Y-104700000D02*
X128900000Y-104700000D01*
X137400000Y-113950000D02*
X137400000Y-115050000D01*
X141700000Y-109650000D02*
X137400000Y-113950000D01*
X130350000Y-107400000D02*
X130350000Y-107350000D01*
X130300000Y-107450000D02*
X130350000Y-107400000D01*
X139400000Y-114200000D02*
X139450000Y-114150000D01*
X139450000Y-114150000D02*
X142000000Y-114150000D01*
X142800000Y-108700000D02*
X142550000Y-108700000D01*
X143850000Y-109750000D02*
X142800000Y-108700000D01*
X134200000Y-112200000D02*
X135450000Y-112200000D01*
X132550000Y-110550000D02*
X134200000Y-112200000D01*
X132550000Y-106750000D02*
X132550000Y-110550000D01*
X132550000Y-101800000D02*
X132550000Y-106750000D01*
X132150000Y-101400000D02*
X132550000Y-101800000D01*
X128000000Y-102500000D02*
X129300000Y-103800000D01*
X129300000Y-103800000D02*
X129550000Y-103800000D01*
X130450000Y-104650000D02*
X130450000Y-103500000D01*
X128850000Y-106250000D02*
X130450000Y-104650000D01*
X127350000Y-106250000D02*
X128850000Y-106250000D01*
X127300000Y-106200000D02*
X127350000Y-106250000D01*
X127950000Y-108200000D02*
X129500000Y-108200000D01*
X129125000Y-109375000D02*
X129675000Y-109375000D01*
X129675000Y-109375000D02*
X129750000Y-109300000D01*
X128450000Y-110050000D02*
X129125000Y-109375000D01*
X129500000Y-106900000D02*
X129550000Y-106850000D01*
X127550000Y-106900000D02*
X129500000Y-106900000D01*
X127150000Y-107300000D02*
X127550000Y-106900000D01*
X127150000Y-111750000D02*
X127150000Y-107300000D01*
X144650000Y-101100000D02*
X138600000Y-107150000D01*
X138600000Y-107150000D02*
X134250000Y-107150000D01*
X137100000Y-110500000D02*
X134800000Y-110500000D01*
X144650000Y-102950000D02*
X137100000Y-110500000D01*
X130900000Y-112850000D02*
X129600000Y-111550000D01*
X137200000Y-112850000D02*
X130900000Y-112850000D01*
X142500000Y-107550000D02*
X137200000Y-112850000D01*
D17*
G36*
X156190000Y-121790000D02*
X118410000Y-121790000D01*
X118410000Y-97940000D01*
X123366655Y-97940000D01*
X123480729Y-98513489D01*
X123805585Y-98999670D01*
X124120366Y-99210000D01*
X123805585Y-99420330D01*
X123480729Y-99906511D01*
X123366655Y-100480000D01*
X123480729Y-101053489D01*
X123805585Y-101539670D01*
X124120366Y-101750000D01*
X123805585Y-101960330D01*
X123480729Y-102446511D01*
X123366655Y-103020000D01*
X123480729Y-103593489D01*
X123805585Y-104079670D01*
X124120366Y-104290000D01*
X123805585Y-104500330D01*
X123480729Y-104986511D01*
X123366655Y-105560000D01*
X123480729Y-106133489D01*
X123805585Y-106619670D01*
X124120366Y-106830000D01*
X123805585Y-107040330D01*
X123480729Y-107526511D01*
X123366655Y-108100000D01*
X123480729Y-108673489D01*
X123805585Y-109159670D01*
X124120366Y-109370000D01*
X123805585Y-109580330D01*
X123480729Y-110066511D01*
X123366655Y-110640000D01*
X123480729Y-111213489D01*
X123805585Y-111699670D01*
X124120366Y-111910000D01*
X123805585Y-112120330D01*
X123480729Y-112606511D01*
X123366655Y-113180000D01*
X123480729Y-113753489D01*
X123805585Y-114239670D01*
X124291766Y-114564526D01*
X124865255Y-114678600D01*
X125234745Y-114678600D01*
X125808234Y-114564526D01*
X126294415Y-114239670D01*
X126619271Y-113753489D01*
X126629129Y-113703931D01*
X128153194Y-115227996D01*
X128256883Y-115478943D01*
X128519673Y-115742192D01*
X128863201Y-115884838D01*
X129235167Y-115885162D01*
X129578943Y-115743117D01*
X129842192Y-115480327D01*
X129984838Y-115136799D01*
X129985162Y-114764833D01*
X129843117Y-114421057D01*
X129580327Y-114157808D01*
X129236799Y-114015162D01*
X129089836Y-114015034D01*
X127635761Y-112560959D01*
X127678943Y-112543117D01*
X127942192Y-112280327D01*
X128084838Y-111936799D01*
X128085013Y-111735167D01*
X128664838Y-111735167D01*
X128806883Y-112078943D01*
X129069673Y-112342192D01*
X129413201Y-112484838D01*
X129460077Y-112484879D01*
X130362599Y-113387401D01*
X130609161Y-113552148D01*
X130900000Y-113610000D01*
X136730700Y-113610000D01*
X136697852Y-113659161D01*
X136640000Y-113950000D01*
X136640000Y-114487537D01*
X136607808Y-114519673D01*
X136465162Y-114863201D01*
X136464867Y-115201438D01*
X136290000Y-115166655D01*
X135716511Y-115280729D01*
X135230330Y-115605585D01*
X135220757Y-115619913D01*
X135216762Y-115598683D01*
X135077690Y-115382559D01*
X134865490Y-115237569D01*
X134613600Y-115186560D01*
X132886400Y-115186560D01*
X132651083Y-115230838D01*
X132434959Y-115369910D01*
X132289969Y-115582110D01*
X132238960Y-115834000D01*
X132238960Y-117866000D01*
X132283238Y-118101317D01*
X132422310Y-118317441D01*
X132634510Y-118462431D01*
X132886400Y-118513440D01*
X134613600Y-118513440D01*
X134848917Y-118469162D01*
X135065041Y-118330090D01*
X135210031Y-118117890D01*
X135218400Y-118076561D01*
X135230330Y-118094415D01*
X135716511Y-118419271D01*
X136290000Y-118533345D01*
X136863489Y-118419271D01*
X137349670Y-118094415D01*
X137560000Y-117779634D01*
X137770330Y-118094415D01*
X138256511Y-118419271D01*
X138830000Y-118533345D01*
X139403489Y-118419271D01*
X139889670Y-118094415D01*
X140214526Y-117608234D01*
X140328600Y-117034745D01*
X140328600Y-116665255D01*
X140214526Y-116091766D01*
X139889670Y-115605585D01*
X139403489Y-115280729D01*
X138830000Y-115166655D01*
X138322006Y-115267701D01*
X138334838Y-115236799D01*
X138335162Y-114864833D01*
X138193117Y-114521057D01*
X138160000Y-114487882D01*
X138160000Y-114264802D01*
X138503196Y-113921606D01*
X138465162Y-114013201D01*
X138464838Y-114385167D01*
X138606883Y-114728943D01*
X138869673Y-114992192D01*
X139213201Y-115134838D01*
X139585167Y-115135162D01*
X139928943Y-114993117D01*
X140012205Y-114910000D01*
X141437537Y-114910000D01*
X141469673Y-114942192D01*
X141813201Y-115084838D01*
X142185167Y-115085162D01*
X142528943Y-114943117D01*
X142792192Y-114680327D01*
X142934838Y-114336799D01*
X142935162Y-113964833D01*
X142793117Y-113621057D01*
X142530327Y-113357808D01*
X142186799Y-113215162D01*
X141814833Y-113214838D01*
X141471057Y-113356883D01*
X141437882Y-113390000D01*
X139887441Y-113390000D01*
X139586799Y-113265162D01*
X139214833Y-113264838D01*
X139121329Y-113303473D01*
X139285776Y-113139026D01*
X144842642Y-113139026D01*
X144845291Y-113154791D01*
X145099268Y-113682036D01*
X145535680Y-114071954D01*
X146088087Y-114265184D01*
X146323000Y-114120924D01*
X146323000Y-112907000D01*
X146577000Y-112907000D01*
X146577000Y-114120924D01*
X146811913Y-114265184D01*
X147364320Y-114071954D01*
X147800732Y-113682036D01*
X148054709Y-113154791D01*
X148057358Y-113139026D01*
X147936217Y-112907000D01*
X146577000Y-112907000D01*
X146323000Y-112907000D01*
X144963783Y-112907000D01*
X144842642Y-113139026D01*
X139285776Y-113139026D01*
X141839680Y-110585122D01*
X141885167Y-110585162D01*
X142228943Y-110443117D01*
X142492192Y-110180327D01*
X142634838Y-109836799D01*
X142635014Y-109635075D01*
X142660295Y-109635097D01*
X142914878Y-109889680D01*
X142914838Y-109935167D01*
X143056883Y-110278943D01*
X143319673Y-110542192D01*
X143663201Y-110684838D01*
X144035167Y-110685162D01*
X144378943Y-110543117D01*
X144642192Y-110280327D01*
X144784838Y-109936799D01*
X144785162Y-109564833D01*
X144643117Y-109221057D01*
X144380327Y-108957808D01*
X144036799Y-108815162D01*
X143989923Y-108815121D01*
X143337401Y-108162599D01*
X143329211Y-108157126D01*
X143272334Y-108100150D01*
X143292192Y-108080327D01*
X143434838Y-107736799D01*
X143435162Y-107364833D01*
X143293117Y-107021057D01*
X143030327Y-106757808D01*
X142686799Y-106615162D01*
X142314833Y-106614838D01*
X141971057Y-106756883D01*
X141707808Y-107019673D01*
X141565162Y-107363201D01*
X141565121Y-107410077D01*
X136885198Y-112090000D01*
X136385097Y-112090000D01*
X136385162Y-112014833D01*
X136243117Y-111671057D01*
X135980327Y-111407808D01*
X135636799Y-111265162D01*
X135357191Y-111264918D01*
X135362118Y-111260000D01*
X137100000Y-111260000D01*
X137390839Y-111202148D01*
X137637401Y-111037401D01*
X144789680Y-103885122D01*
X144835167Y-103885162D01*
X145178943Y-103743117D01*
X145227699Y-103694446D01*
X145520366Y-103890000D01*
X145205585Y-104100330D01*
X144880729Y-104586511D01*
X144766655Y-105160000D01*
X144880729Y-105733489D01*
X145205585Y-106219670D01*
X145520366Y-106430000D01*
X145205585Y-106640330D01*
X144880729Y-107126511D01*
X144766655Y-107700000D01*
X144880729Y-108273489D01*
X145205585Y-108759670D01*
X145520366Y-108970000D01*
X145205585Y-109180330D01*
X144880729Y-109666511D01*
X144766655Y-110240000D01*
X144880729Y-110813489D01*
X145205585Y-111299670D01*
X145515069Y-111506461D01*
X145099268Y-111877964D01*
X144845291Y-112405209D01*
X144842642Y-112420974D01*
X144963783Y-112653000D01*
X146323000Y-112653000D01*
X146323000Y-112633000D01*
X146577000Y-112633000D01*
X146577000Y-112653000D01*
X147936217Y-112653000D01*
X148057358Y-112420974D01*
X148054709Y-112405209D01*
X147800732Y-111877964D01*
X147384931Y-111506461D01*
X147694415Y-111299670D01*
X148019271Y-110813489D01*
X148133345Y-110240000D01*
X148019271Y-109666511D01*
X147694415Y-109180330D01*
X147379634Y-108970000D01*
X147694415Y-108759670D01*
X148019271Y-108273489D01*
X148133345Y-107700000D01*
X148019271Y-107126511D01*
X147694415Y-106640330D01*
X147379634Y-106430000D01*
X147694415Y-106219670D01*
X148019271Y-105733489D01*
X148133345Y-105160000D01*
X148019271Y-104586511D01*
X147694415Y-104100330D01*
X147379634Y-103890000D01*
X147694415Y-103679670D01*
X148019271Y-103193489D01*
X148133345Y-102620000D01*
X148019271Y-102046511D01*
X147694415Y-101560330D01*
X147379634Y-101350000D01*
X147694415Y-101139670D01*
X148019271Y-100653489D01*
X148133345Y-100080000D01*
X148019271Y-99506511D01*
X147694415Y-99020330D01*
X147379634Y-98810000D01*
X147694415Y-98599670D01*
X148019271Y-98113489D01*
X148133345Y-97540000D01*
X148019271Y-96966511D01*
X147694415Y-96480330D01*
X147680087Y-96470757D01*
X147701317Y-96466762D01*
X147917441Y-96327690D01*
X148062431Y-96115490D01*
X148113440Y-95863600D01*
X148113440Y-94136400D01*
X148069162Y-93901083D01*
X147930090Y-93684959D01*
X147717890Y-93539969D01*
X147466000Y-93488960D01*
X145434000Y-93488960D01*
X145198683Y-93533238D01*
X144982559Y-93672310D01*
X144837569Y-93884510D01*
X144786560Y-94136400D01*
X144786560Y-95863600D01*
X144830838Y-96098917D01*
X144969910Y-96315041D01*
X145182110Y-96460031D01*
X145223439Y-96468400D01*
X145205585Y-96480330D01*
X144880729Y-96966511D01*
X144766655Y-97540000D01*
X144880729Y-98113489D01*
X145205585Y-98599670D01*
X145520366Y-98810000D01*
X145205585Y-99020330D01*
X144880729Y-99506511D01*
X144766655Y-100080000D01*
X144783586Y-100165116D01*
X144464833Y-100164838D01*
X144121057Y-100306883D01*
X143857808Y-100569673D01*
X143715162Y-100913201D01*
X143715121Y-100960077D01*
X138285198Y-106390000D01*
X134812463Y-106390000D01*
X134780327Y-106357808D01*
X134436799Y-106215162D01*
X134064833Y-106214838D01*
X133721057Y-106356883D01*
X133457808Y-106619673D01*
X133315162Y-106963201D01*
X133314838Y-107335167D01*
X133456883Y-107678943D01*
X133719673Y-107942192D01*
X134063201Y-108084838D01*
X134435167Y-108085162D01*
X134778943Y-107943117D01*
X134812118Y-107910000D01*
X138600000Y-107910000D01*
X138618972Y-107906226D01*
X136785198Y-109740000D01*
X135362463Y-109740000D01*
X135330327Y-109707808D01*
X134986799Y-109565162D01*
X134614833Y-109564838D01*
X134271057Y-109706883D01*
X134007808Y-109969673D01*
X133865162Y-110313201D01*
X133864838Y-110685167D01*
X133938679Y-110863877D01*
X133310000Y-110235198D01*
X133310000Y-101800000D01*
X133252148Y-101509161D01*
X133252148Y-101509160D01*
X133087401Y-101262599D01*
X133085122Y-101260320D01*
X133085162Y-101214833D01*
X132943117Y-100871057D01*
X132680327Y-100607808D01*
X132336799Y-100465162D01*
X131964833Y-100464838D01*
X131621057Y-100606883D01*
X131357808Y-100869673D01*
X131215162Y-101213201D01*
X131214838Y-101585167D01*
X131356883Y-101928943D01*
X131619673Y-102192192D01*
X131790000Y-102262918D01*
X131790000Y-110550000D01*
X131847852Y-110840839D01*
X132012599Y-111087401D01*
X133015198Y-112090000D01*
X131214802Y-112090000D01*
X130535122Y-111410320D01*
X130535162Y-111364833D01*
X130393117Y-111021057D01*
X130130327Y-110757808D01*
X129786799Y-110615162D01*
X129414833Y-110614838D01*
X129071057Y-110756883D01*
X128807808Y-111019673D01*
X128665162Y-111363201D01*
X128664838Y-111735167D01*
X128085013Y-111735167D01*
X128085162Y-111564833D01*
X127943117Y-111221057D01*
X127910000Y-111187882D01*
X127910000Y-110832502D01*
X127919673Y-110842192D01*
X128263201Y-110984838D01*
X128635167Y-110985162D01*
X128978943Y-110843117D01*
X129242192Y-110580327D01*
X129384838Y-110236799D01*
X129384879Y-110189923D01*
X129405463Y-110169339D01*
X129563201Y-110234838D01*
X129935167Y-110235162D01*
X130278943Y-110093117D01*
X130542192Y-109830327D01*
X130684838Y-109486799D01*
X130685162Y-109114833D01*
X130543117Y-108771057D01*
X130353961Y-108581571D01*
X130434838Y-108386799D01*
X130435162Y-108014833D01*
X130293117Y-107671057D01*
X130172247Y-107549976D01*
X130342192Y-107380327D01*
X130484838Y-107036799D01*
X130485162Y-106664833D01*
X130343117Y-106321057D01*
X130098645Y-106076157D01*
X130987401Y-105187401D01*
X131152148Y-104940839D01*
X131210000Y-104650000D01*
X131210000Y-104062463D01*
X131242192Y-104030327D01*
X131384838Y-103686799D01*
X131385162Y-103314833D01*
X131243117Y-102971057D01*
X130980327Y-102707808D01*
X130636799Y-102565162D01*
X130264833Y-102564838D01*
X129921057Y-102706883D01*
X129754951Y-102872699D01*
X129736799Y-102865162D01*
X129439705Y-102864903D01*
X128935122Y-102360320D01*
X128935162Y-102314833D01*
X128793117Y-101971057D01*
X128530327Y-101707808D01*
X128186799Y-101565162D01*
X127814833Y-101564838D01*
X127471057Y-101706883D01*
X127207808Y-101969673D01*
X127065162Y-102313201D01*
X127064838Y-102685167D01*
X127206883Y-103028943D01*
X127469673Y-103292192D01*
X127813201Y-103434838D01*
X127860077Y-103434879D01*
X128365198Y-103940000D01*
X127900000Y-103940000D01*
X127609161Y-103997852D01*
X127362599Y-104162599D01*
X126586994Y-104938204D01*
X126294415Y-104500330D01*
X125979634Y-104290000D01*
X126294415Y-104079670D01*
X126619271Y-103593489D01*
X126733345Y-103020000D01*
X126619271Y-102446511D01*
X126294415Y-101960330D01*
X125979634Y-101750000D01*
X126294415Y-101539670D01*
X126619271Y-101053489D01*
X126733345Y-100480000D01*
X126619271Y-99906511D01*
X126294415Y-99420330D01*
X125979634Y-99210000D01*
X126294415Y-98999670D01*
X126619271Y-98513489D01*
X126733345Y-97940000D01*
X126619271Y-97366511D01*
X126294415Y-96880330D01*
X126280087Y-96870757D01*
X126301317Y-96866762D01*
X126517441Y-96727690D01*
X126662431Y-96515490D01*
X126713440Y-96263600D01*
X126713440Y-94536400D01*
X126669162Y-94301083D01*
X126530090Y-94084959D01*
X126317890Y-93939969D01*
X126066000Y-93888960D01*
X124034000Y-93888960D01*
X123798683Y-93933238D01*
X123582559Y-94072310D01*
X123437569Y-94284510D01*
X123386560Y-94536400D01*
X123386560Y-96263600D01*
X123430838Y-96498917D01*
X123569910Y-96715041D01*
X123782110Y-96860031D01*
X123823439Y-96868400D01*
X123805585Y-96880330D01*
X123480729Y-97366511D01*
X123366655Y-97940000D01*
X118410000Y-97940000D01*
X118410000Y-90415690D01*
X132415592Y-90415690D01*
X132580362Y-90814463D01*
X132885193Y-91119826D01*
X133283677Y-91285291D01*
X133715150Y-91285668D01*
X134113923Y-91120898D01*
X134419286Y-90816067D01*
X134584751Y-90417583D01*
X134584752Y-90415690D01*
X136814872Y-90415690D01*
X136979642Y-90814463D01*
X137284473Y-91119826D01*
X137682957Y-91285291D01*
X138114430Y-91285668D01*
X138513203Y-91120898D01*
X138818566Y-90816067D01*
X138984031Y-90417583D01*
X138984408Y-89986110D01*
X138819638Y-89587337D01*
X138514807Y-89281974D01*
X138116323Y-89116509D01*
X137684850Y-89116132D01*
X137286077Y-89280902D01*
X136980714Y-89585733D01*
X136815249Y-89984217D01*
X136814872Y-90415690D01*
X134584752Y-90415690D01*
X134585128Y-89986110D01*
X134420358Y-89587337D01*
X134115527Y-89281974D01*
X133717043Y-89116509D01*
X133285570Y-89116132D01*
X132886797Y-89280902D01*
X132581434Y-89585733D01*
X132415969Y-89984217D01*
X132415592Y-90415690D01*
X118410000Y-90415690D01*
X118410000Y-85610000D01*
X156190000Y-85610000D01*
X156190000Y-121790000D01*
X156190000Y-121790000D01*
G37*
X156190000Y-121790000D02*
X118410000Y-121790000D01*
X118410000Y-97940000D01*
X123366655Y-97940000D01*
X123480729Y-98513489D01*
X123805585Y-98999670D01*
X124120366Y-99210000D01*
X123805585Y-99420330D01*
X123480729Y-99906511D01*
X123366655Y-100480000D01*
X123480729Y-101053489D01*
X123805585Y-101539670D01*
X124120366Y-101750000D01*
X123805585Y-101960330D01*
X123480729Y-102446511D01*
X123366655Y-103020000D01*
X123480729Y-103593489D01*
X123805585Y-104079670D01*
X124120366Y-104290000D01*
X123805585Y-104500330D01*
X123480729Y-104986511D01*
X123366655Y-105560000D01*
X123480729Y-106133489D01*
X123805585Y-106619670D01*
X124120366Y-106830000D01*
X123805585Y-107040330D01*
X123480729Y-107526511D01*
X123366655Y-108100000D01*
X123480729Y-108673489D01*
X123805585Y-109159670D01*
X124120366Y-109370000D01*
X123805585Y-109580330D01*
X123480729Y-110066511D01*
X123366655Y-110640000D01*
X123480729Y-111213489D01*
X123805585Y-111699670D01*
X124120366Y-111910000D01*
X123805585Y-112120330D01*
X123480729Y-112606511D01*
X123366655Y-113180000D01*
X123480729Y-113753489D01*
X123805585Y-114239670D01*
X124291766Y-114564526D01*
X124865255Y-114678600D01*
X125234745Y-114678600D01*
X125808234Y-114564526D01*
X126294415Y-114239670D01*
X126619271Y-113753489D01*
X126629129Y-113703931D01*
X128153194Y-115227996D01*
X128256883Y-115478943D01*
X128519673Y-115742192D01*
X128863201Y-115884838D01*
X129235167Y-115885162D01*
X129578943Y-115743117D01*
X129842192Y-115480327D01*
X129984838Y-115136799D01*
X129985162Y-114764833D01*
X129843117Y-114421057D01*
X129580327Y-114157808D01*
X129236799Y-114015162D01*
X129089836Y-114015034D01*
X127635761Y-112560959D01*
X127678943Y-112543117D01*
X127942192Y-112280327D01*
X128084838Y-111936799D01*
X128085013Y-111735167D01*
X128664838Y-111735167D01*
X128806883Y-112078943D01*
X129069673Y-112342192D01*
X129413201Y-112484838D01*
X129460077Y-112484879D01*
X130362599Y-113387401D01*
X130609161Y-113552148D01*
X130900000Y-113610000D01*
X136730700Y-113610000D01*
X136697852Y-113659161D01*
X136640000Y-113950000D01*
X136640000Y-114487537D01*
X136607808Y-114519673D01*
X136465162Y-114863201D01*
X136464867Y-115201438D01*
X136290000Y-115166655D01*
X135716511Y-115280729D01*
X135230330Y-115605585D01*
X135220757Y-115619913D01*
X135216762Y-115598683D01*
X135077690Y-115382559D01*
X134865490Y-115237569D01*
X134613600Y-115186560D01*
X132886400Y-115186560D01*
X132651083Y-115230838D01*
X132434959Y-115369910D01*
X132289969Y-115582110D01*
X132238960Y-115834000D01*
X132238960Y-117866000D01*
X132283238Y-118101317D01*
X132422310Y-118317441D01*
X132634510Y-118462431D01*
X132886400Y-118513440D01*
X134613600Y-118513440D01*
X134848917Y-118469162D01*
X135065041Y-118330090D01*
X135210031Y-118117890D01*
X135218400Y-118076561D01*
X135230330Y-118094415D01*
X135716511Y-118419271D01*
X136290000Y-118533345D01*
X136863489Y-118419271D01*
X137349670Y-118094415D01*
X137560000Y-117779634D01*
X137770330Y-118094415D01*
X138256511Y-118419271D01*
X138830000Y-118533345D01*
X139403489Y-118419271D01*
X139889670Y-118094415D01*
X140214526Y-117608234D01*
X140328600Y-117034745D01*
X140328600Y-116665255D01*
X140214526Y-116091766D01*
X139889670Y-115605585D01*
X139403489Y-115280729D01*
X138830000Y-115166655D01*
X138322006Y-115267701D01*
X138334838Y-115236799D01*
X138335162Y-114864833D01*
X138193117Y-114521057D01*
X138160000Y-114487882D01*
X138160000Y-114264802D01*
X138503196Y-113921606D01*
X138465162Y-114013201D01*
X138464838Y-114385167D01*
X138606883Y-114728943D01*
X138869673Y-114992192D01*
X139213201Y-115134838D01*
X139585167Y-115135162D01*
X139928943Y-114993117D01*
X140012205Y-114910000D01*
X141437537Y-114910000D01*
X141469673Y-114942192D01*
X141813201Y-115084838D01*
X142185167Y-115085162D01*
X142528943Y-114943117D01*
X142792192Y-114680327D01*
X142934838Y-114336799D01*
X142935162Y-113964833D01*
X142793117Y-113621057D01*
X142530327Y-113357808D01*
X142186799Y-113215162D01*
X141814833Y-113214838D01*
X141471057Y-113356883D01*
X141437882Y-113390000D01*
X139887441Y-113390000D01*
X139586799Y-113265162D01*
X139214833Y-113264838D01*
X139121329Y-113303473D01*
X139285776Y-113139026D01*
X144842642Y-113139026D01*
X144845291Y-113154791D01*
X145099268Y-113682036D01*
X145535680Y-114071954D01*
X146088087Y-114265184D01*
X146323000Y-114120924D01*
X146323000Y-112907000D01*
X146577000Y-112907000D01*
X146577000Y-114120924D01*
X146811913Y-114265184D01*
X147364320Y-114071954D01*
X147800732Y-113682036D01*
X148054709Y-113154791D01*
X148057358Y-113139026D01*
X147936217Y-112907000D01*
X146577000Y-112907000D01*
X146323000Y-112907000D01*
X144963783Y-112907000D01*
X144842642Y-113139026D01*
X139285776Y-113139026D01*
X141839680Y-110585122D01*
X141885167Y-110585162D01*
X142228943Y-110443117D01*
X142492192Y-110180327D01*
X142634838Y-109836799D01*
X142635014Y-109635075D01*
X142660295Y-109635097D01*
X142914878Y-109889680D01*
X142914838Y-109935167D01*
X143056883Y-110278943D01*
X143319673Y-110542192D01*
X143663201Y-110684838D01*
X144035167Y-110685162D01*
X144378943Y-110543117D01*
X144642192Y-110280327D01*
X144784838Y-109936799D01*
X144785162Y-109564833D01*
X144643117Y-109221057D01*
X144380327Y-108957808D01*
X144036799Y-108815162D01*
X143989923Y-108815121D01*
X143337401Y-108162599D01*
X143329211Y-108157126D01*
X143272334Y-108100150D01*
X143292192Y-108080327D01*
X143434838Y-107736799D01*
X143435162Y-107364833D01*
X143293117Y-107021057D01*
X143030327Y-106757808D01*
X142686799Y-106615162D01*
X142314833Y-106614838D01*
X141971057Y-106756883D01*
X141707808Y-107019673D01*
X141565162Y-107363201D01*
X141565121Y-107410077D01*
X136885198Y-112090000D01*
X136385097Y-112090000D01*
X136385162Y-112014833D01*
X136243117Y-111671057D01*
X135980327Y-111407808D01*
X135636799Y-111265162D01*
X135357191Y-111264918D01*
X135362118Y-111260000D01*
X137100000Y-111260000D01*
X137390839Y-111202148D01*
X137637401Y-111037401D01*
X144789680Y-103885122D01*
X144835167Y-103885162D01*
X145178943Y-103743117D01*
X145227699Y-103694446D01*
X145520366Y-103890000D01*
X145205585Y-104100330D01*
X144880729Y-104586511D01*
X144766655Y-105160000D01*
X144880729Y-105733489D01*
X145205585Y-106219670D01*
X145520366Y-106430000D01*
X145205585Y-106640330D01*
X144880729Y-107126511D01*
X144766655Y-107700000D01*
X144880729Y-108273489D01*
X145205585Y-108759670D01*
X145520366Y-108970000D01*
X145205585Y-109180330D01*
X144880729Y-109666511D01*
X144766655Y-110240000D01*
X144880729Y-110813489D01*
X145205585Y-111299670D01*
X145515069Y-111506461D01*
X145099268Y-111877964D01*
X144845291Y-112405209D01*
X144842642Y-112420974D01*
X144963783Y-112653000D01*
X146323000Y-112653000D01*
X146323000Y-112633000D01*
X146577000Y-112633000D01*
X146577000Y-112653000D01*
X147936217Y-112653000D01*
X148057358Y-112420974D01*
X148054709Y-112405209D01*
X147800732Y-111877964D01*
X147384931Y-111506461D01*
X147694415Y-111299670D01*
X148019271Y-110813489D01*
X148133345Y-110240000D01*
X148019271Y-109666511D01*
X147694415Y-109180330D01*
X147379634Y-108970000D01*
X147694415Y-108759670D01*
X148019271Y-108273489D01*
X148133345Y-107700000D01*
X148019271Y-107126511D01*
X147694415Y-106640330D01*
X147379634Y-106430000D01*
X147694415Y-106219670D01*
X148019271Y-105733489D01*
X148133345Y-105160000D01*
X148019271Y-104586511D01*
X147694415Y-104100330D01*
X147379634Y-103890000D01*
X147694415Y-103679670D01*
X148019271Y-103193489D01*
X148133345Y-102620000D01*
X148019271Y-102046511D01*
X147694415Y-101560330D01*
X147379634Y-101350000D01*
X147694415Y-101139670D01*
X148019271Y-100653489D01*
X148133345Y-100080000D01*
X148019271Y-99506511D01*
X147694415Y-99020330D01*
X147379634Y-98810000D01*
X147694415Y-98599670D01*
X148019271Y-98113489D01*
X148133345Y-97540000D01*
X148019271Y-96966511D01*
X147694415Y-96480330D01*
X147680087Y-96470757D01*
X147701317Y-96466762D01*
X147917441Y-96327690D01*
X148062431Y-96115490D01*
X148113440Y-95863600D01*
X148113440Y-94136400D01*
X148069162Y-93901083D01*
X147930090Y-93684959D01*
X147717890Y-93539969D01*
X147466000Y-93488960D01*
X145434000Y-93488960D01*
X145198683Y-93533238D01*
X144982559Y-93672310D01*
X144837569Y-93884510D01*
X144786560Y-94136400D01*
X144786560Y-95863600D01*
X144830838Y-96098917D01*
X144969910Y-96315041D01*
X145182110Y-96460031D01*
X145223439Y-96468400D01*
X145205585Y-96480330D01*
X144880729Y-96966511D01*
X144766655Y-97540000D01*
X144880729Y-98113489D01*
X145205585Y-98599670D01*
X145520366Y-98810000D01*
X145205585Y-99020330D01*
X144880729Y-99506511D01*
X144766655Y-100080000D01*
X144783586Y-100165116D01*
X144464833Y-100164838D01*
X144121057Y-100306883D01*
X143857808Y-100569673D01*
X143715162Y-100913201D01*
X143715121Y-100960077D01*
X138285198Y-106390000D01*
X134812463Y-106390000D01*
X134780327Y-106357808D01*
X134436799Y-106215162D01*
X134064833Y-106214838D01*
X133721057Y-106356883D01*
X133457808Y-106619673D01*
X133315162Y-106963201D01*
X133314838Y-107335167D01*
X133456883Y-107678943D01*
X133719673Y-107942192D01*
X134063201Y-108084838D01*
X134435167Y-108085162D01*
X134778943Y-107943117D01*
X134812118Y-107910000D01*
X138600000Y-107910000D01*
X138618972Y-107906226D01*
X136785198Y-109740000D01*
X135362463Y-109740000D01*
X135330327Y-109707808D01*
X134986799Y-109565162D01*
X134614833Y-109564838D01*
X134271057Y-109706883D01*
X134007808Y-109969673D01*
X133865162Y-110313201D01*
X133864838Y-110685167D01*
X133938679Y-110863877D01*
X133310000Y-110235198D01*
X133310000Y-101800000D01*
X133252148Y-101509161D01*
X133252148Y-101509160D01*
X133087401Y-101262599D01*
X133085122Y-101260320D01*
X133085162Y-101214833D01*
X132943117Y-100871057D01*
X132680327Y-100607808D01*
X132336799Y-100465162D01*
X131964833Y-100464838D01*
X131621057Y-100606883D01*
X131357808Y-100869673D01*
X131215162Y-101213201D01*
X131214838Y-101585167D01*
X131356883Y-101928943D01*
X131619673Y-102192192D01*
X131790000Y-102262918D01*
X131790000Y-110550000D01*
X131847852Y-110840839D01*
X132012599Y-111087401D01*
X133015198Y-112090000D01*
X131214802Y-112090000D01*
X130535122Y-111410320D01*
X130535162Y-111364833D01*
X130393117Y-111021057D01*
X130130327Y-110757808D01*
X129786799Y-110615162D01*
X129414833Y-110614838D01*
X129071057Y-110756883D01*
X128807808Y-111019673D01*
X128665162Y-111363201D01*
X128664838Y-111735167D01*
X128085013Y-111735167D01*
X128085162Y-111564833D01*
X127943117Y-111221057D01*
X127910000Y-111187882D01*
X127910000Y-110832502D01*
X127919673Y-110842192D01*
X128263201Y-110984838D01*
X128635167Y-110985162D01*
X128978943Y-110843117D01*
X129242192Y-110580327D01*
X129384838Y-110236799D01*
X129384879Y-110189923D01*
X129405463Y-110169339D01*
X129563201Y-110234838D01*
X129935167Y-110235162D01*
X130278943Y-110093117D01*
X130542192Y-109830327D01*
X130684838Y-109486799D01*
X130685162Y-109114833D01*
X130543117Y-108771057D01*
X130353961Y-108581571D01*
X130434838Y-108386799D01*
X130435162Y-108014833D01*
X130293117Y-107671057D01*
X130172247Y-107549976D01*
X130342192Y-107380327D01*
X130484838Y-107036799D01*
X130485162Y-106664833D01*
X130343117Y-106321057D01*
X130098645Y-106076157D01*
X130987401Y-105187401D01*
X131152148Y-104940839D01*
X131210000Y-104650000D01*
X131210000Y-104062463D01*
X131242192Y-104030327D01*
X131384838Y-103686799D01*
X131385162Y-103314833D01*
X131243117Y-102971057D01*
X130980327Y-102707808D01*
X130636799Y-102565162D01*
X130264833Y-102564838D01*
X129921057Y-102706883D01*
X129754951Y-102872699D01*
X129736799Y-102865162D01*
X129439705Y-102864903D01*
X128935122Y-102360320D01*
X128935162Y-102314833D01*
X128793117Y-101971057D01*
X128530327Y-101707808D01*
X128186799Y-101565162D01*
X127814833Y-101564838D01*
X127471057Y-101706883D01*
X127207808Y-101969673D01*
X127065162Y-102313201D01*
X127064838Y-102685167D01*
X127206883Y-103028943D01*
X127469673Y-103292192D01*
X127813201Y-103434838D01*
X127860077Y-103434879D01*
X128365198Y-103940000D01*
X127900000Y-103940000D01*
X127609161Y-103997852D01*
X127362599Y-104162599D01*
X126586994Y-104938204D01*
X126294415Y-104500330D01*
X125979634Y-104290000D01*
X126294415Y-104079670D01*
X126619271Y-103593489D01*
X126733345Y-103020000D01*
X126619271Y-102446511D01*
X126294415Y-101960330D01*
X125979634Y-101750000D01*
X126294415Y-101539670D01*
X126619271Y-101053489D01*
X126733345Y-100480000D01*
X126619271Y-99906511D01*
X126294415Y-99420330D01*
X125979634Y-99210000D01*
X126294415Y-98999670D01*
X126619271Y-98513489D01*
X126733345Y-97940000D01*
X126619271Y-97366511D01*
X126294415Y-96880330D01*
X126280087Y-96870757D01*
X126301317Y-96866762D01*
X126517441Y-96727690D01*
X126662431Y-96515490D01*
X126713440Y-96263600D01*
X126713440Y-94536400D01*
X126669162Y-94301083D01*
X126530090Y-94084959D01*
X126317890Y-93939969D01*
X126066000Y-93888960D01*
X124034000Y-93888960D01*
X123798683Y-93933238D01*
X123582559Y-94072310D01*
X123437569Y-94284510D01*
X123386560Y-94536400D01*
X123386560Y-96263600D01*
X123430838Y-96498917D01*
X123569910Y-96715041D01*
X123782110Y-96860031D01*
X123823439Y-96868400D01*
X123805585Y-96880330D01*
X123480729Y-97366511D01*
X123366655Y-97940000D01*
X118410000Y-97940000D01*
X118410000Y-90415690D01*
X132415592Y-90415690D01*
X132580362Y-90814463D01*
X132885193Y-91119826D01*
X133283677Y-91285291D01*
X133715150Y-91285668D01*
X134113923Y-91120898D01*
X134419286Y-90816067D01*
X134584751Y-90417583D01*
X134584752Y-90415690D01*
X136814872Y-90415690D01*
X136979642Y-90814463D01*
X137284473Y-91119826D01*
X137682957Y-91285291D01*
X138114430Y-91285668D01*
X138513203Y-91120898D01*
X138818566Y-90816067D01*
X138984031Y-90417583D01*
X138984408Y-89986110D01*
X138819638Y-89587337D01*
X138514807Y-89281974D01*
X138116323Y-89116509D01*
X137684850Y-89116132D01*
X137286077Y-89280902D01*
X136980714Y-89585733D01*
X136815249Y-89984217D01*
X136814872Y-90415690D01*
X134584752Y-90415690D01*
X134585128Y-89986110D01*
X134420358Y-89587337D01*
X134115527Y-89281974D01*
X133717043Y-89116509D01*
X133285570Y-89116132D01*
X132886797Y-89280902D01*
X132581434Y-89585733D01*
X132415969Y-89984217D01*
X132415592Y-90415690D01*
X118410000Y-90415690D01*
X118410000Y-85610000D01*
X156190000Y-85610000D01*
X156190000Y-121790000D01*
M02*
