M48
;DRILL file {KiCad 4.0.2+dfsg1-stable} date Mon 21 Aug 2017 12:22:45 PM CEST
;FORMAT={-:-/ absolute / inch / decimal}
FMAT,2
INCH,TZ
T1C0.016
T2C0.040
T3C0.035
%
G90
G05
M72
T1
X5.0059Y-4.3996
X5.0118Y-4.1811
X5.0374Y-4.2598
X5.0394Y-4.0354
X5.0571Y-4.3327
X5.0807Y-4.5256
X5.0984Y-4.122
X5.0984Y-4.2598
X5.1004Y-4.0866
X5.1004Y-4.2067
X5.1024Y-4.3917
X5.1083Y-4.3031
X5.1299Y-4.2303
X5.1358Y-4.0748
X5.2028Y-3.9921
X5.2244Y-3.752
X5.2854Y-4.2185
X5.3071Y-4.3504
X5.3327Y-4.4173
X5.3898Y-4.2894
X5.4094Y-4.5295
X5.4882Y-4.4961
X5.5591Y-4.0157
X5.5787Y-4.3169
X5.5906Y-4.4941
X5.6102Y-4.2343
X5.6122Y-4.2795
X5.6634Y-4.3209
X5.6949Y-3.9803
X5.6949Y-4.0531
T2
X4.9232Y-3.7559
X4.9232Y-3.8559
X4.9232Y-3.9559
X4.9232Y-4.0559
X4.9232Y-4.1559
X4.9232Y-4.2559
X4.9232Y-4.3559
X4.9232Y-4.4559
X5.2657Y-4.6004
X5.3657Y-4.6004
X5.4657Y-4.6004
X5.7657Y-3.7402
X5.7657Y-3.8402
X5.7657Y-3.9402
X5.7657Y-4.0402
X5.7657Y-4.1402
X5.7657Y-4.2402
X5.7657Y-4.3402
X5.7657Y-4.4402
T3
X5.2559Y-3.5512
X5.4291Y-3.5512
T0
M30
